<svg width="1403" height="240" viewBox="0 0 1403 240" fill="none" xmlns="http://www.w3.org/2000/svg">
<path d="M222.98 170.862L138.718 124.981C123.157 116.509 104.361 116.509 88.8006 124.981L4.53899 170.862C-1.46522 174.131 -1.52496 182.73 4.43325 186.082L88.1663 233.195C104.057 242.135 123.462 242.135 139.352 233.195L223.085 186.082C229.044 182.73 228.984 174.131 222.98 170.862Z" fill="#B0C4FD"/>
<path d="M48.1256 88.1964C40.401 82.1752 44.5336 64.1597 54.3277 64.1597H171.608C181.402 64.1597 185.534 82.1752 177.81 88.1964C166.2 97.2459 156.904 108.486 156.904 121.277C156.904 143.686 186.388 161.334 206.556 170.785C213.436 174.009 214.12 184.272 207.434 187.883L135.83 226.549C122.933 233.513 107.396 233.513 94.4984 226.549L22.4076 187.62C15.797 184.05 16.355 173.926 23.0629 170.543C41.9138 161.036 69.0312 143.497 69.0312 121.277C69.0312 108.486 59.7351 97.2459 48.1256 88.1964Z" fill="url(#paint0_linear_1594_39091)"/>
<path d="M222.98 52.2347L138.718 6.35449C123.157 -2.11816 104.361 -2.11816 88.8006 6.35449L4.53899 52.2347C-1.46522 55.5039 -1.52496 64.1031 4.43325 67.4555L88.1663 114.568C104.057 123.508 123.462 123.508 139.352 114.568L223.085 67.4555C229.044 64.1031 228.984 55.5039 222.98 52.2347Z" fill="#1B1464"/>
<path d="M271.993 214.787V27.3552H390.791V53.3279H303.885V107.951H375.11V133.656H303.885V214.787H271.993Z" fill="#1C1C1C"/>
<path d="M271.993 214.787V27.3552H390.791V53.3279H303.885V107.951H375.11V133.656H303.885V214.787H271.993Z" fill="black" fill-opacity="0.2"/>
<path d="M408.447 214.787V22H440.339V214.787H408.447Z" fill="#1C1C1C"/>
<path d="M408.447 214.787V22H440.339V214.787H408.447Z" fill="black" fill-opacity="0.2"/>
<path d="M529.082 218C515.971 218 504.1 215.144 493.47 209.432C483.016 203.541 474.689 195.33 468.488 184.798C462.286 174.266 459.186 162.128 459.186 148.383C459.186 134.459 462.286 122.321 468.488 111.967C474.689 101.435 483.105 93.3133 493.735 87.6011C504.366 81.7104 516.148 78.765 529.082 78.765C542.37 78.765 554.241 81.7104 564.695 87.6011C575.148 93.3133 583.476 101.435 589.677 111.967C595.878 122.321 598.979 134.459 598.979 148.383C598.979 162.128 595.878 174.266 589.677 184.798C583.476 195.33 575.06 203.541 564.429 209.432C553.976 215.144 542.193 218 529.082 218ZM529.082 190.153C535.815 190.153 541.928 188.636 547.42 185.601C553.09 182.388 557.608 177.747 560.974 171.678C564.34 165.43 566.024 157.665 566.024 148.383C566.024 139.1 564.34 131.424 560.974 125.355C557.608 119.107 553.09 114.466 547.42 111.432C541.928 108.219 535.904 106.612 529.348 106.612C522.615 106.612 516.414 108.219 510.744 111.432C505.075 114.466 500.557 119.107 497.19 125.355C493.824 131.424 492.141 139.1 492.141 148.383C492.141 157.665 493.824 165.43 497.19 171.678C500.557 177.747 504.986 182.388 510.479 185.601C516.148 188.636 522.349 190.153 529.082 190.153Z" fill="#1C1C1C"/>
<path d="M529.082 218C515.971 218 504.1 215.144 493.47 209.432C483.016 203.541 474.689 195.33 468.488 184.798C462.286 174.266 459.186 162.128 459.186 148.383C459.186 134.459 462.286 122.321 468.488 111.967C474.689 101.435 483.105 93.3133 493.735 87.6011C504.366 81.7104 516.148 78.765 529.082 78.765C542.37 78.765 554.241 81.7104 564.695 87.6011C575.148 93.3133 583.476 101.435 589.677 111.967C595.878 122.321 598.979 134.459 598.979 148.383C598.979 162.128 595.878 174.266 589.677 184.798C583.476 195.33 575.06 203.541 564.429 209.432C553.976 215.144 542.193 218 529.082 218ZM529.082 190.153C535.815 190.153 541.928 188.636 547.42 185.601C553.09 182.388 557.608 177.747 560.974 171.678C564.34 165.43 566.024 157.665 566.024 148.383C566.024 139.1 564.34 131.424 560.974 125.355C557.608 119.107 553.09 114.466 547.42 111.432C541.928 108.219 535.904 106.612 529.348 106.612C522.615 106.612 516.414 108.219 510.744 111.432C505.075 114.466 500.557 119.107 497.19 125.355C493.824 131.424 492.141 139.1 492.141 148.383C492.141 157.665 493.824 165.43 497.19 171.678C500.557 177.747 504.986 182.388 510.479 185.601C516.148 188.636 522.349 190.153 529.082 190.153Z" fill="black" fill-opacity="0.2"/>
<path d="M642.018 214.787L603.216 81.9781H634.842L662.482 194.437H654.775L686.401 81.9781H721.748L753.64 194.437H745.667L773.307 81.9781H805.198L766.397 214.787H733.442L699.689 98.3115H708.46L674.973 214.787H642.018Z" fill="#1C1C1C"/>
<path d="M642.018 214.787L603.216 81.9781H634.842L662.482 194.437H654.775L686.401 81.9781H721.748L753.64 194.437H745.667L773.307 81.9781H805.198L766.397 214.787H733.442L699.689 98.3115H708.46L674.973 214.787H642.018Z" fill="black" fill-opacity="0.2"/>
<path d="M899.988 218C889.888 218 881.03 216.036 873.411 212.109C865.792 208.182 859.68 202.738 855.073 195.776V214.787H823.181V22H855.073V101.525C859.325 95.4554 865.084 90.1894 872.348 85.7268C879.612 81.0856 888.825 78.765 899.988 78.765C912.567 78.765 923.729 81.7996 933.474 87.8689C943.219 93.9381 950.837 102.239 956.33 112.771C962 123.302 964.834 135.262 964.834 148.65C964.834 161.86 962 173.73 956.33 184.262C950.837 194.794 943.219 203.095 933.474 209.164C923.729 215.055 912.567 218 899.988 218ZM893.609 189.885C901.228 189.885 907.961 188.1 913.807 184.53C919.654 180.96 924.172 176.14 927.361 170.071C930.728 163.823 932.411 156.683 932.411 148.65C932.411 140.439 930.728 133.209 927.361 126.962C924.172 120.536 919.654 115.627 913.807 112.235C907.961 108.665 901.228 106.88 893.609 106.88C885.991 106.88 879.258 108.665 873.411 112.235C867.564 115.627 862.958 120.446 859.591 126.694C856.225 132.942 854.542 140.171 854.542 148.383C854.542 156.594 856.225 163.823 859.591 170.071C862.958 176.14 867.564 180.96 873.411 184.53C879.258 188.1 885.991 189.885 893.609 189.885Z" fill="#1C1C1C"/>
<path d="M899.988 218C889.888 218 881.03 216.036 873.411 212.109C865.792 208.182 859.68 202.738 855.073 195.776V214.787H823.181V22H855.073V101.525C859.325 95.4554 865.084 90.1894 872.348 85.7268C879.612 81.0856 888.825 78.765 899.988 78.765C912.567 78.765 923.729 81.7996 933.474 87.8689C943.219 93.9381 950.837 102.239 956.33 112.771C962 123.302 964.834 135.262 964.834 148.65C964.834 161.86 962 173.73 956.33 184.262C950.837 194.794 943.219 203.095 933.474 209.164C923.729 215.055 912.567 218 899.988 218ZM893.609 189.885C901.228 189.885 907.961 188.1 913.807 184.53C919.654 180.96 924.172 176.14 927.361 170.071C930.728 163.823 932.411 156.683 932.411 148.65C932.411 140.439 930.728 133.209 927.361 126.962C924.172 120.536 919.654 115.627 913.807 112.235C907.961 108.665 901.228 106.88 893.609 106.88C885.991 106.88 879.258 108.665 873.411 112.235C867.564 115.627 862.958 120.446 859.591 126.694C856.225 132.942 854.542 140.171 854.542 148.383C854.542 156.594 856.225 163.823 859.591 170.071C862.958 176.14 867.564 180.96 873.411 184.53C879.258 188.1 885.991 189.885 893.609 189.885Z" fill="black" fill-opacity="0.2"/>
<path d="M983.322 214.787V81.9781H1015.21V214.787H983.322ZM983.322 59.2186V26.2841H1015.48V59.2186H983.322Z" fill="#1C1C1C"/>
<path d="M983.322 214.787V81.9781H1015.21V214.787H983.322ZM983.322 59.2186V26.2841H1015.48V59.2186H983.322Z" fill="black" fill-opacity="0.2"/>
<path d="M1090.93 214.787C1082.43 214.787 1075.25 213.805 1069.41 211.842C1063.56 209.699 1059.13 205.772 1056.12 200.06C1053.11 194.348 1051.6 186.047 1051.6 175.158V109.022H1029.01V81.9781H1051.6V47.1694H1083.49V81.9781H1118.04V109.022H1083.49V170.874C1083.49 175.694 1083.94 179.264 1084.82 181.585C1085.88 183.905 1087.66 185.512 1090.14 186.404C1092.62 187.118 1096.25 187.475 1101.03 187.475H1116.71V214.787H1090.93Z" fill="#1C1C1C"/>
<path d="M1090.93 214.787C1082.43 214.787 1075.25 213.805 1069.41 211.842C1063.56 209.699 1059.13 205.772 1056.12 200.06C1053.11 194.348 1051.6 186.047 1051.6 175.158V109.022H1029.01V81.9781H1051.6V47.1694H1083.49V81.9781H1118.04V109.022H1083.49V170.874C1083.49 175.694 1083.94 179.264 1084.82 181.585C1085.88 183.905 1087.66 185.512 1090.14 186.404C1092.62 187.118 1096.25 187.475 1101.03 187.475H1116.71V214.787H1090.93Z" fill="black" fill-opacity="0.2"/>
<path d="M1180.59 214.787L1248.63 27.3552H1284.24L1352.28 214.787H1318.53L1259.53 45.2951H1273.08L1214.08 214.787H1180.59ZM1211.95 170.607L1220.72 145.169H1312.15L1320.92 170.607H1211.95Z" fill="#1C1C1C"/>
<path d="M1180.59 214.787L1248.63 27.3552H1284.24L1352.28 214.787H1318.53L1259.53 45.2951H1273.08L1214.08 214.787H1180.59ZM1211.95 170.607L1220.72 145.169H1312.15L1320.92 170.607H1211.95Z" fill="black" fill-opacity="0.2"/>
<path d="M1371.1 214.787V27.3552H1402.99V214.787H1371.1Z" fill="#1C1C1C"/>
<path d="M1371.1 214.787V27.3552H1402.99V214.787H1371.1Z" fill="black" fill-opacity="0.2"/>
<defs>
<linearGradient id="paint0_linear_1594_39091" x1="121.756" y1="81.7342" x2="121.418" y2="180.507" gradientUnits="userSpaceOnUse">
<stop stop-color="#0022CF"/>
<stop offset="1" stop-color="#B0C4FD"/>
</linearGradient>
</defs>
</svg>
